<svg width="32" height="32" viewBox="0 0 32 32" fill="none" xmlns="http://www.w3.org/2000/svg">
<rect width="32" height="32" rx="4" fill="#A02CE8"/>
<path d="M11.3774 26.37C12.7574 27.03 14.2874 27.36 15.9674 27.36C18.1874 27.36 20.0074 26.75 21.4274 25.53C22.8674 24.31 23.5874 22.73 23.5874 20.79C23.6074 17.77 22.4 16.72 19 15.5C17 14.7824 13.7174 14.4162 13.7174 12.43C13.7174 17.1275 18.7274 16 18.7274 21.12C18.7274 21.64 18.4874 22.07 18.0074 22.41C17.5474 22.73 16.9274 22.89 16.1474 22.89C15.3474 22.89 14.5374 22.67 13.7174 22.23C12.9174 21.79 12.2574 21.2 11.7374 20.46L8.07742 23.55C8.91742 24.75 10.0174 25.69 11.3774 26.37Z" fill="url(#paint0_linear_403_226)"/>
<path d="M18.0374 19.71C18.4974 20.11 18.7274 20.58 18.7274 21.12C18.7274 16 13.7174 16.1983 13.7174 12.43C13.7174 10.5 15.291 9.81 16.2974 9.81C17.7774 9.81 19.0074 10.4 19.9874 11.58L23.1074 8.28C21.2874 6.32 18.9974 5.34 16.2374 5.34C14.0774 5.34 12.3074 5.93 10.9274 7.11C9.56742 8.29 8.88742 9.89 8.88742 11.91C8.88742 14.81 10.6774 16.86 14.2574 18.06L15.7574 18.57C16.8174 18.93 17.5774 19.31 18.0374 19.71Z" fill="url(#paint1_linear_403_226)"/>
<defs>
<linearGradient id="paint0_linear_403_226" x1="15.8325" y1="12.43" x2="15.8325" y2="27.36" gradientUnits="userSpaceOnUse">
<stop stop-color="white"/>
<stop offset="1" stop-color="#C27AF1"/>
</linearGradient>
<linearGradient id="paint1_linear_403_226" x1="15.9974" y1="5.34" x2="15.9974" y2="21.12" gradientUnits="userSpaceOnUse">
<stop stop-color="white"/>
<stop offset="1" stop-color="#C27AF1"/>
</linearGradient>
</defs>
</svg>
