<svg width="163" height="20" viewBox="0 0 163 20" fill="none" xmlns="http://www.w3.org/2000/svg">
<g clip-path="url(#clip0_403_297)">
<path d="M156.015 15.7143V5H158.374V6.90714C158.575 6.30714 158.939 5.82142 159.468 5.44999C160.011 5.07857 160.591 4.89285 161.205 4.89285C161.577 4.89285 161.885 4.92142 162.128 4.97857V7.4C161.784 7.27142 161.391 7.20714 160.948 7.20714C160.233 7.20714 159.625 7.5 159.125 8.08571C158.625 8.65714 158.374 9.45714 158.374 10.4857V15.7143H156.015Z" fill="#E8CDF9"/>
<path d="M152.012 14.3215C150.94 15.3929 149.61 15.9286 148.023 15.9286C146.436 15.9286 145.099 15.3929 144.012 14.3215C142.94 13.2357 142.404 11.9143 142.404 10.3572C142.404 8.80002 142.94 7.48574 144.012 6.41431C145.099 5.32859 146.436 4.78574 148.023 4.78574C149.61 4.78574 150.94 5.32859 152.012 6.41431C153.099 7.48574 153.642 8.80002 153.642 10.3572C153.642 11.9143 153.099 13.2357 152.012 14.3215ZM148.023 13.7429C148.953 13.7429 149.717 13.4215 150.318 12.7786C150.933 12.1215 151.24 11.3143 151.24 10.3572C151.24 9.40002 150.933 8.60002 150.318 7.95716C149.717 7.30002 148.953 6.97145 148.023 6.97145C147.079 6.97145 146.3 7.30002 145.685 7.95716C145.085 8.60002 144.785 9.40002 144.785 10.3572C144.785 11.3143 145.085 12.1215 145.685 12.7786C146.3 13.4215 147.079 13.7429 148.023 13.7429Z" fill="#E8CDF9"/>
<path d="M139.327 15.8214C138.24 15.8214 137.353 15.5214 136.667 14.9214C135.995 14.3071 135.659 13.4214 135.659 12.2643V7.1H133.429V5H135.659V2.02142H138.018V5H141.085V7.1H138.018V11.8786C138.018 12.5357 138.161 13.0071 138.447 13.2929C138.733 13.5643 139.191 13.7 139.82 13.7C140.335 13.7 140.756 13.6286 141.085 13.4857V15.5857C140.571 15.7429 139.984 15.8214 139.327 15.8214Z" fill="#E8CDF9"/>
<path d="M127.519 15.9286C125.904 15.9286 124.552 15.4 123.466 14.3429C122.393 13.2715 121.857 11.9429 121.857 10.3572C121.857 8.77145 122.393 7.45002 123.466 6.39288C124.552 5.32145 125.904 4.78574 127.519 4.78574C128.62 4.78574 129.607 5.05002 130.479 5.57859C131.366 6.10717 132.045 6.82859 132.517 7.74288L130.458 8.85716C130.186 8.28574 129.793 7.82859 129.278 7.48574C128.763 7.14288 128.177 6.97145 127.519 6.97145C126.576 6.97145 125.796 7.30002 125.182 7.95716C124.567 8.60002 124.259 9.40002 124.259 10.3572C124.259 11.3143 124.567 12.1215 125.182 12.7786C125.796 13.4215 126.576 13.7429 127.519 13.7429C128.177 13.7429 128.763 13.5715 129.278 13.2286C129.793 12.8857 130.186 12.4286 130.458 11.8572L132.517 12.9715C132.045 13.8857 131.366 14.6072 130.479 15.1357C129.607 15.6643 128.62 15.9286 127.519 15.9286Z" fill="#E8CDF9"/>
<path d="M113.964 15.9286C112.735 15.9286 111.763 15.5214 111.048 14.7071C110.333 13.8786 109.975 12.7786 109.975 11.4071V5H112.334V11.0214C112.334 11.8786 112.52 12.5571 112.892 13.0571C113.264 13.5429 113.793 13.7857 114.479 13.7857C115.28 13.7857 115.916 13.4857 116.388 12.8857C116.86 12.2714 117.096 11.4 117.096 10.2714V5H119.455V15.7143H117.096V14.2571C116.467 15.3714 115.423 15.9286 113.964 15.9286Z" fill="#E8CDF9"/>
<path d="M101.138 15.9286C99.6799 15.9286 98.4503 15.3857 97.4494 14.3C96.4628 13.2143 95.9695 11.9 95.9695 10.3571C95.9695 8.81428 96.4628 7.5 97.4494 6.41428C98.4503 5.32857 99.6799 4.78571 101.138 4.78571C101.868 4.78571 102.54 4.95 103.154 5.27857C103.769 5.59285 104.241 5.97857 104.57 6.43571V-0.357147H106.929V15.7143H104.57V14.2786C104.241 14.7357 103.769 15.1286 103.154 15.4571C102.54 15.7714 101.868 15.9286 101.138 15.9286ZM99.2724 12.8C99.873 13.4571 100.638 13.7857 101.567 13.7857C102.497 13.7857 103.262 13.4571 103.862 12.8C104.463 12.1429 104.763 11.3286 104.763 10.3571C104.763 9.38571 104.463 8.57143 103.862 7.91428C103.262 7.25714 102.497 6.92857 101.567 6.92857C100.638 6.92857 99.873 7.25714 99.2724 7.91428C98.6719 8.57143 98.3716 9.38571 98.3716 10.3571C98.3716 11.3286 98.6719 12.1429 99.2724 12.8Z" fill="#E8CDF9"/>
<path d="M84.0073 15.7143V5.00002H86.3665V6.45716C87.0385 5.34288 88.1252 4.78574 89.6265 4.78574C90.8704 4.78574 91.8641 5.19288 92.6077 6.00717C93.3512 6.82145 93.7229 7.90716 93.7229 9.26431V15.7143H91.3637V9.65002C91.3637 8.79288 91.1635 8.12859 90.7632 7.65716C90.3628 7.17145 89.8195 6.92859 89.1332 6.92859C88.3182 6.92859 87.6533 7.23574 87.1386 7.85002C86.6238 8.46431 86.3665 9.32859 86.3665 10.4429V15.7143H84.0073Z" fill="#E8CDF9"/>
<path d="M80.0045 14.3215C78.9321 15.3929 77.6024 15.9286 76.0153 15.9286C74.4282 15.9286 73.0913 15.3929 72.0046 14.3215C70.9322 13.2357 70.3961 11.9143 70.3961 10.3572C70.3961 8.80002 70.9322 7.48574 72.0046 6.41431C73.0913 5.32859 74.4282 4.78574 76.0153 4.78574C77.6024 4.78574 78.9321 5.32859 80.0045 6.41431C81.0911 7.48574 81.6345 8.80002 81.6345 10.3572C81.6345 11.9143 81.0911 13.2357 80.0045 14.3215ZM76.0153 13.7429C76.9447 13.7429 77.7096 13.4215 78.3101 12.7786C78.925 12.1215 79.2324 11.3143 79.2324 10.3572C79.2324 9.40002 78.925 8.60002 78.3101 7.95716C77.7096 7.30002 76.9447 6.97145 76.0153 6.97145C75.0716 6.97145 74.2923 7.30002 73.6775 7.95716C73.077 8.60002 72.7767 9.40002 72.7767 10.3572C72.7767 11.3143 73.077 12.1215 73.6775 12.7786C74.2923 13.4215 75.0716 13.7429 76.0153 13.7429Z" fill="#E8CDF9"/>
<path d="M64.015 15.9286C62.3993 15.9286 61.0481 15.4 59.9615 14.3429C58.8891 13.2715 58.3529 11.9429 58.3529 10.3572C58.3529 8.77145 58.8891 7.45002 59.9615 6.39288C61.0481 5.32145 62.3993 4.78574 64.015 4.78574C65.116 4.78574 66.1026 5.05002 66.9748 5.57859C67.8612 6.10717 68.5404 6.82859 69.0123 7.74288L66.9533 8.85716C66.6816 8.28574 66.2884 7.82859 65.7737 7.48574C65.259 7.14288 64.6727 6.97145 64.015 6.97145C63.0713 6.97145 62.2921 7.30002 61.6772 7.95716C61.0624 8.60002 60.755 9.40002 60.755 10.3572C60.755 11.3143 61.0624 12.1215 61.6772 12.7786C62.2921 13.4215 63.0713 13.7429 64.015 13.7429C64.6727 13.7429 65.259 13.5715 65.7737 13.2286C66.2884 12.8857 66.6816 12.4286 66.9533 11.8572L69.0123 12.9715C68.5404 13.8857 67.8612 14.6072 66.9748 15.1357C66.1026 15.6643 65.116 15.9286 64.015 15.9286Z" fill="#E8CDF9"/>
<path d="M51.3545 15.7143V5H53.7137V6.90714C53.9139 6.30714 54.2785 5.82142 54.8075 5.44999C55.3509 5.07857 55.9299 4.89285 56.5448 4.89285C56.9165 4.89285 57.2239 4.92142 57.467 4.97857V7.4C57.1238 7.27142 56.7306 7.20714 56.2874 7.20714C55.5725 7.20714 54.9648 7.5 54.4644 8.08571C53.9639 8.65714 53.7137 9.45714 53.7137 10.4857V15.7143H51.3545Z" fill="#E8CDF9"/>
<path d="M43.7604 15.9286C42.1304 15.9286 40.7864 15.4072 39.7283 14.3643C38.6845 13.3215 38.1627 11.9857 38.1627 10.3572C38.1627 8.77145 38.6917 7.45002 39.7498 6.39288C40.8078 5.32145 42.1447 4.78574 43.7604 4.78574C45.2474 4.78574 46.4771 5.25716 47.4494 6.20002C48.4359 7.14288 48.9292 8.44288 48.9292 10.1C48.9292 10.3857 48.9221 10.6429 48.9078 10.8715H40.479C40.5362 11.7429 40.8722 12.45 41.487 12.9929C42.1018 13.5215 42.8668 13.7857 43.7819 13.7857C45.1545 13.7857 46.1768 13.2429 46.8488 12.1572L48.6504 13.4429C47.6209 15.1 45.9909 15.9286 43.7604 15.9286ZM40.5862 9.15716H46.5486C46.4199 8.41431 46.0839 7.83574 45.5406 7.42145C45.0115 6.99288 44.3895 6.77859 43.6746 6.77859C42.9311 6.77859 42.2663 6.98574 41.68 7.40002C41.1081 7.81431 40.7435 8.40002 40.5862 9.15716Z" fill="#E8CDF9"/>
<path d="M27.8889 20.1929H25.5297V5.00002H27.8889V6.43574C28.2177 5.97859 28.6896 5.59288 29.3044 5.27859C29.9335 4.95002 30.6127 4.78574 31.3419 4.78574C32.8003 4.78574 34.0228 5.32859 35.0094 6.41431C36.0103 7.50002 36.5107 8.81431 36.5107 10.3572C36.5107 11.9 36.0103 13.2143 35.0094 14.3C34.0228 15.3857 32.8003 15.9286 31.3419 15.9286C30.6127 15.9286 29.9335 15.7715 29.3044 15.4572C28.6896 15.1286 28.2177 14.7357 27.8889 14.2786V20.1929ZM30.913 13.7857C31.8423 13.7857 32.6073 13.4572 33.2078 12.8C33.8083 12.1429 34.1086 11.3286 34.1086 10.3572C34.1086 9.38574 33.8083 8.57145 33.2078 7.91431C32.6073 7.25717 31.8423 6.92859 30.913 6.92859C29.9693 6.92859 29.1972 7.25717 28.5966 7.91431C27.9961 8.57145 27.6958 9.38574 27.6958 10.3572C27.6958 11.3286 27.9961 12.1429 28.5966 12.8C29.1972 13.4572 29.9693 13.7857 30.913 13.7857Z" fill="#E8CDF9"/>
<path d="M16.8648 15.9286C15.6351 15.9286 14.6628 15.5214 13.9479 14.7071C13.233 13.8786 12.8755 12.7786 12.8755 11.4071V5H15.2348V11.0214C15.2348 11.8786 15.4206 12.5571 15.7924 13.0571C16.1641 13.5429 16.6932 13.7857 17.3795 13.7857C18.1802 13.7857 18.8165 13.4857 19.2883 12.8857C19.7602 12.2714 19.9961 11.4 19.9961 10.2714V5H22.3553V15.7143H19.9961V14.2571C19.367 15.3714 18.3232 15.9286 16.8648 15.9286Z" fill="#E8CDF9"/>
<path d="M2.41457 16.6929C3.40115 17.1643 4.49496 17.4 5.69602 17.4C7.28312 17.4 8.58426 16.9643 9.59944 16.0929C10.6289 15.2214 11.1436 14.0929 11.1436 12.7071C11.1579 10.55 10.2947 9.8 7.86404 8.92858C6.43422 8.41597 4.08746 8.15442 4.08746 6.73572C4.08746 10.0911 7.66918 9.28572 7.66918 12.9429C7.66918 13.3143 7.4976 13.6214 7.15444 13.8643C6.82558 14.0929 6.38233 14.2071 5.8247 14.2071C5.25277 14.2071 4.67369 14.05 4.08746 13.7357C3.51553 13.4214 3.04369 13 2.67194 12.4714L0.0553589 14.6786C0.655885 15.5357 1.44229 16.2071 2.41457 16.6929Z" fill="url(#paint0_linear_403_297)"/>
<path d="M7.17591 11.9357C7.50477 12.2214 7.6692 12.5571 7.6692 12.9428C7.6692 9.2857 4.08749 9.42735 4.08749 6.7357C4.08749 5.35713 5.21249 4.86428 5.93196 4.86428C6.99003 4.86428 7.86937 5.2857 8.56999 6.12856L10.8005 3.77142C9.49937 2.37142 7.86223 1.67142 5.88907 1.67142C4.34486 1.67142 3.07946 2.09285 2.09288 2.9357C1.1206 3.77856 0.63446 4.92142 0.63446 6.36428C0.63446 8.4357 1.91415 9.89999 4.47354 10.7571L5.54591 11.1214C6.30371 11.3786 6.84705 11.65 7.17591 11.9357Z" fill="url(#paint1_linear_403_297)"/>
</g>
<defs>
<linearGradient id="paint0_linear_403_297" x1="5.59957" y1="6.73572" x2="5.59957" y2="17.4" gradientUnits="userSpaceOnUse">
<stop stop-color="white"/>
<stop offset="1" stop-color="#C27AF1"/>
</linearGradient>
<linearGradient id="paint1_linear_403_297" x1="5.71749" y1="1.67142" x2="5.71749" y2="12.9428" gradientUnits="userSpaceOnUse">
<stop stop-color="white"/>
<stop offset="1" stop-color="#A02CE8"/>
</linearGradient>
<clipPath id="clip0_403_297">
<rect width="163" height="20" fill="white"/>
</clipPath>
</defs>
</svg>
