<svg width="132" height="28" viewBox="0 0 132 28" fill="none" xmlns="http://www.w3.org/2000/svg">
<path d="M129.995 4.45453V23H125.567V4.45453H129.995Z" fill="#A2A2A2"/>
<path d="M117.037 23.2626C115.576 23.2626 114.32 22.9638 113.27 22.3661C112.225 21.7624 111.419 20.9233 110.852 19.8487C110.29 18.7681 110.01 17.5154 110.01 16.0907C110.01 14.66 110.29 13.4073 110.852 12.3327C111.419 11.2521 112.225 10.413 113.27 9.81533C114.32 9.21164 115.576 8.90979 117.037 8.90979C118.498 8.90979 119.75 9.21164 120.795 9.81533C121.845 10.413 122.651 11.2521 123.212 12.3327C123.78 13.4073 124.064 14.66 124.064 16.0907C124.064 17.5154 123.78 18.7681 123.212 19.8487C122.651 20.9233 121.845 21.7624 120.795 22.3661C119.75 22.9638 118.498 23.2626 117.037 23.2626ZM117.064 19.9212C117.595 19.9212 118.045 19.7582 118.413 19.4322C118.781 19.1062 119.062 18.6534 119.255 18.0739C119.454 17.4943 119.554 16.8242 119.554 16.0636C119.554 15.2908 119.454 14.6147 119.255 14.0351C119.062 13.4556 118.781 13.0028 118.413 12.6768C118.045 12.3508 117.595 12.1878 117.064 12.1878C116.514 12.1878 116.05 12.3508 115.669 12.6768C115.295 13.0028 115.008 13.4556 114.809 14.0351C114.616 14.6147 114.519 15.2908 114.519 16.0636C114.519 16.8242 114.616 17.4943 114.809 18.0739C115.008 18.6534 115.295 19.1062 115.669 19.4322C116.05 19.7582 116.514 19.9212 117.064 19.9212Z" fill="#A2A2A2"/>
<path d="M102.014 23.2626C100.553 23.2626 99.2969 22.9638 98.2465 22.3661C97.2021 21.7624 96.3962 20.9233 95.8287 19.8487C95.2673 18.7681 94.9866 17.5154 94.9866 16.0907C94.9866 14.66 95.2673 13.4073 95.8287 12.3327C96.3962 11.2521 97.2021 10.413 98.2465 9.81533C99.2969 9.21164 100.553 8.90979 102.014 8.90979C103.474 8.90979 104.727 9.21164 105.772 9.81533C106.822 10.413 107.628 11.2521 108.189 12.3327C108.757 13.4073 109.041 14.66 109.041 16.0907C109.041 17.5154 108.757 18.7681 108.189 19.8487C107.628 20.9233 106.822 21.7624 105.772 22.3661C104.727 22.9638 103.474 23.2626 102.014 23.2626ZM102.041 19.9212C102.572 19.9212 103.022 19.7582 103.39 19.4322C103.758 19.1062 104.039 18.6534 104.232 18.0739C104.431 17.4943 104.531 16.8242 104.531 16.0636C104.531 15.2908 104.431 14.6147 104.232 14.0351C104.039 13.4556 103.758 13.0028 103.39 12.6768C103.022 12.3508 102.572 12.1878 102.041 12.1878C101.491 12.1878 101.027 12.3508 100.646 12.6768C100.272 13.0028 99.9852 13.4556 99.7859 14.0351C99.5928 14.6147 99.4962 15.2908 99.4962 16.0636C99.4962 16.8242 99.5928 17.4943 99.7859 18.0739C99.9852 18.6534 100.272 19.1062 100.646 19.4322C101.027 19.7582 101.491 19.9212 102.041 19.9212Z" fill="#A2A2A2"/>
<path d="M80.4388 8.0948V4.45453H96.1137V8.0948H90.4903V23H86.0713V8.0948H80.4388Z" fill="#A2A2A2"/>
<path d="M80.9843 9.09088L76.2121 23H71.1411L66.3779 9.09088H71.0415L73.6041 18.6715H73.749L76.3208 9.09088H80.9843Z" fill="#A2A2A2"/>
<path d="M59.7673 23.2626C58.3124 23.2626 57.0567 22.9758 56.0003 22.4023C54.9498 21.8228 54.1409 20.9987 53.5734 19.9302C53.012 18.8556 52.7313 17.5788 52.7313 16.0998C52.7313 14.663 53.015 13.4073 53.5825 12.3327C54.1499 11.2521 54.9498 10.413 55.9822 9.81533C57.0145 9.21164 58.2309 8.90979 59.6315 8.90979C60.6215 8.90979 61.5271 9.06373 62.3481 9.37161C63.1691 9.6795 63.8785 10.1353 64.4761 10.739C65.0738 11.3427 65.5386 12.0882 65.8706 12.9757C66.2027 13.8571 66.3687 14.8682 66.3687 16.0092V17.114H54.2797V14.5422H62.2485C62.2424 14.0714 62.1308 13.6518 61.9134 13.2835C61.6961 12.9153 61.3973 12.6285 61.017 12.4233C60.6427 12.212 60.211 12.1063 59.722 12.1063C59.227 12.1063 58.7833 12.218 58.3909 12.4414C57.9985 12.6587 57.6876 12.9576 57.4582 13.3379C57.2288 13.7122 57.108 14.1378 57.096 14.6147V17.2317C57.096 17.7992 57.2076 18.2972 57.431 18.7258C57.6544 19.1484 57.9713 19.4774 58.3818 19.7129C58.7923 19.9483 59.2813 20.066 59.8488 20.066C60.2412 20.066 60.5974 20.0117 60.9173 19.903C61.2373 19.7944 61.512 19.6344 61.7414 19.4231C61.9708 19.2118 62.1428 18.9522 62.2575 18.6443L66.3234 18.7621C66.1544 19.6736 65.7831 20.4675 65.2096 21.1436C64.6421 21.8137 63.8966 22.3359 62.9729 22.7102C62.0493 23.0785 60.9807 23.2626 59.7673 23.2626Z" fill="#A2A2A2"/>
<path d="M42.2585 23H35.4036V4.45453H42.2494C44.139 4.45453 45.766 4.8258 47.1303 5.56834C48.5007 6.30485 49.5572 7.36735 50.2997 8.75584C51.0422 10.1383 51.4135 11.7924 51.4135 13.7182C51.4135 15.65 51.0422 17.3102 50.2997 18.6987C49.5632 20.0872 48.5097 21.1527 47.1394 21.8952C45.769 22.6317 44.142 23 42.2585 23ZM39.886 19.1786H42.0864C43.1248 19.1786 44.0032 19.0035 44.7216 18.6534C45.446 18.2972 45.9923 17.7207 46.3606 16.9238C46.7349 16.1209 46.922 15.0524 46.922 13.7182C46.922 12.384 46.7349 11.3215 46.3606 10.5307C45.9863 9.73383 45.4339 9.16032 44.7035 8.81018C43.979 8.454 43.0856 8.27591 42.0231 8.27591H39.886V19.1786Z" fill="#A2A2A2"/>
<rect width="14" height="14" transform="matrix(0.866025 0.5 -0.866025 0.5 12.1243 0)" fill="#E6E6E6"/>
<rect width="14" height="14" transform="matrix(0.866025 0.5 0 1 0 7)" fill="#C0C0C0"/>
<rect width="14" height="14" transform="matrix(0.866025 -0.5 0 1 12.1243 14)" fill="#9A9A9A"/>
<g style="mix-blend-mode:overlay">
<rect width="14" height="14" transform="matrix(0.866025 0.5 -0.866025 0.5 12.1244 0)" fill="#0073FF"/>
<rect width="14" height="14" transform="matrix(0.866025 0.5 0 1 0 7)" fill="#0073FF"/>
<rect width="14" height="14" transform="matrix(0.866025 -0.5 0 1 12.1243 14)" fill="#0073FF"/>
</g>
</svg>
